<svg width="254" height="254" viewBox="0 0 254 254" fill="none" xmlns="http://www.w3.org/2000/svg">
<path fill-rule="evenodd" clip-rule="evenodd" d="M254 127C254 197.14 197.14 254 127 254C56.8598 254 0 197.14 0 127C0 56.8598 56.8598 0 127 0C197.14 0 254 56.8598 254 127ZM103.839 22.5135L104 22L104.175 22.4397C111.53 20.8418 119.167 20 127 20C186.094 20 234 67.9055 234 127C234 145.934 229.082 163.719 220.454 179.148L221 180L220.28 179.458C201.933 212.014 167.034 234 127 234C91.2475 234 59.5905 216.465 40.16 189.526L29.5 196L38.3794 186.981C26.7778 169.873 20 149.228 20 127C20 75.8585 55.8789 33.097 103.839 22.5135Z" fill="#0057FF"/>
<path d="M181.132 77.038L151.357 140.755L104.175 22.4397C104.063 22.4641 103.951 22.4887 103.839 22.5135L66.2362 142.072L83.8874 140.755L38.3794 186.981C38.9609 187.838 39.5545 188.687 40.16 189.526L94.9499 156.251L112.547 100.161L151.357 189L184.321 117.042L194.401 159.956L220.28 179.458C220.339 179.355 220.397 179.251 220.454 179.148L203.347 152.439L181.132 77.038Z" fill="#0057FF"/>
</svg>
